<svg width="154" height="154" fill="none" xmlns="http://www.w3.org/2000/svg"><path d="m68.017 106.517 45.237-45.238-8.983-8.983L68.017 88.55 49.729 70.263l-8.983 8.983 27.27 27.271ZM77 141.167c-8.876 0-17.218-1.685-25.025-5.053-7.807-3.369-14.598-7.941-20.373-13.716-5.775-5.775-10.347-12.566-13.716-20.373-3.368-7.807-5.053-16.149-5.053-25.025 0-8.876 1.685-17.218 5.053-25.025 3.37-7.807 7.941-14.598 13.716-20.373 5.775-5.775 12.566-10.347 20.373-13.715 7.807-3.37 16.149-5.054 25.025-5.054 8.876 0 17.218 1.685 25.025 5.054 7.807 3.368 14.598 7.94 20.373 13.715 5.775 5.775 10.347 12.566 13.715 20.373 3.369 7.807 5.054 16.149 5.054 25.025 0 8.876-1.685 17.218-5.054 25.025-3.368 7.807-7.94 14.598-13.715 20.373-5.775 5.775-12.566 10.347-20.373 13.716-7.807 3.368-16.149 5.053-25.025 5.053Zm0-12.834c14.33 0 26.469-4.973 36.414-14.918 9.946-9.946 14.919-22.084 14.919-36.415 0-14.33-4.973-26.469-14.919-36.415C103.469 30.64 91.33 25.667 77 25.667c-14.33 0-26.469 4.973-36.415 14.918C30.64 50.531 25.667 62.67 25.667 77c0 14.33 4.973 26.469 14.918 36.415C50.531 123.36 62.67 128.333 77 128.333Z" fill="#3CF099"/></svg>