<svg width="154" height="154" viewBox="0 0 154 154" fill="none" xmlns="http://www.w3.org/2000/svg">
<path d="M68.0166 106.517L113.254 61.2792L104.271 52.2958L68.0166 88.55L49.7291 70.2625L40.7458 79.2458L68.0166 106.517ZM76.9999 141.167C68.1235 141.167 59.7819 139.482 51.9749 136.114C44.168 132.745 37.377 128.173 31.602 122.398C25.827 116.623 21.2551 109.832 17.8864 102.025C14.5176 94.2181 12.8333 85.8764 12.8333 77C12.8333 68.1236 14.5176 59.782 17.8864 51.975C21.2551 44.1681 25.827 37.3771 31.602 31.6021C37.377 25.8271 44.168 21.2552 51.9749 17.8865C59.7819 14.5177 68.1235 12.8333 76.9999 12.8333C85.8763 12.8333 94.218 14.5177 102.025 17.8865C109.832 21.2552 116.623 25.8271 122.398 31.6021C128.173 37.3771 132.745 44.1681 136.113 51.975C139.482 59.782 141.167 68.1236 141.167 77C141.167 85.8764 139.482 94.2181 136.113 102.025C132.745 109.832 128.173 116.623 122.398 122.398C116.623 128.173 109.832 132.745 102.025 136.114C94.218 139.482 85.8763 141.167 76.9999 141.167ZM76.9999 128.333C91.3305 128.333 103.469 123.36 113.414 113.415C123.36 103.469 128.333 91.3306 128.333 77C128.333 62.6695 123.36 50.5313 113.414 40.5854C103.469 30.6396 91.3305 25.6667 76.9999 25.6667C62.6694 25.6667 50.5312 30.6396 40.5853 40.5854C30.6395 50.5313 25.6666 62.6695 25.6666 77C25.6666 91.3306 30.6395 103.469 40.5853 113.415C50.5312 123.36 62.6694 128.333 76.9999 128.333Z" fill="#3CF099"/>
</svg>
